HIERARCHY
ROOT pelvis
{
	OFFSET 0.000000 0.000000 0.000000
	CHANNELS 6 Xposition Yposition Zposition Zrotation Xrotation Yrotation
	JOINT lfemur
	{
		OFFSET 11.446000 0.000000 0.000000
		CHANNELS 3 Zrotation Xrotation Yrotation
		JOINT ltibia
		{
			OFFSET 0.000000 -42.030400 0.000000
			CHANNELS 3 Zrotation Xrotation Yrotation
			JOINT lfoot
			{
				OFFSET 0.000000 -39.930200 0.000000
				CHANNELS 3 Zrotation Xrotation Yrotation
				JOINT ltoes
				{
					OFFSET 0.000000 0.000000 11.775800
					CHANNELS 3 Zrotation Xrotation Yrotation
					End Site
					{
					    OFFSET 0.000000 0.000000 5.000000
					}
				}
			}
		}
	}
	JOINT rfemur
	{
		OFFSET -11.446000 0.000000 0.000000
		CHANNELS 3 Zrotation Xrotation Yrotation
		JOINT rtibia
		{
			OFFSET 0.000000 -42.030400 0.000000
			CHANNELS 3 Zrotation Xrotation Yrotation
			JOINT rfoot
			{
				OFFSET 0.000000 -39.930200 0.000000
				CHANNELS 3 Zrotation Xrotation Yrotation
				JOINT rtoes
				{
					OFFSET 0.000000 0.000000 11.775800
					CHANNELS 3 Zrotation Xrotation Yrotation
					End Site
					{
					    OFFSET 0.000000 0.000000 5.000000
					}
				}
			}
		}
	}
	JOINT thorax
	{
		OFFSET 0.000000 11.255600 -5.000000
		CHANNELS 3 Zrotation Xrotation Yrotation
		JOINT head
		{
			OFFSET 0.000000 43.799300 0.000000
			CHANNELS 3 Zrotation Xrotation Yrotation
			End Site
			{
			    OFFSET 0.000000 5.000000 0.000000
			}
		}
		JOINT lclavicle
		{
			OFFSET 0.000000 39.863000 0.000000
			CHANNELS 3 Zrotation Xrotation Yrotation
			JOINT lhumerus
			{
				OFFSET 17.380600 4.958300 0.000000
				CHANNELS 3 Zrotation Xrotation Yrotation
				JOINT lradius
				{
					OFFSET 0.000000 -27.561300 0.000000
					CHANNELS 3 Zrotation Xrotation Yrotation
					JOINT lhand
					{
						OFFSET 0.000000 -26.933000 0.000000
						CHANNELS 3 Zrotation Xrotation Yrotation
						End Site
						{
						    OFFSET 0.000000 -5.000000 0.000000
						}
					}
				}
			}
		}
		JOINT rclavicle
		{
			OFFSET 0.000000 39.863000 0.000000
			CHANNELS 3 Zrotation Xrotation Yrotation
			JOINT rhumerus
			{
				OFFSET -17.380600 4.958300 0.000000
				CHANNELS 3 Zrotation Xrotation Yrotation
				JOINT rradius
				{
					OFFSET 0.000000 -27.561300 0.000000
					CHANNELS 3 Zrotation Xrotation Yrotation
					JOINT rhand
					{
						OFFSET 0.000000 -26.933000 0.000000
						CHANNELS 3 Zrotation Xrotation Yrotation
						End Site
						{
						    OFFSET 0.000000 -5.000000 0.000000
						}
					}
				}
			}
		}
	}
}
MOTION
Frames: 19
Frame Time:	0.0333333
77.452700 78.610700 10.579400 12.885184 -10.345118 -132.539311 5.892862 -49.762975 13.035365 -0.000000 61.907953 0.000000 0.000000 -9.263883 16.991161 -0.000000 -1.310603 -0.000000 4.099667 -38.591604 -5.951171 -0.000000 53.700919 -0.000000 0.000000 -17.109665 -5.405991 -0.000000 -29.538341 0.000000 -4.648927 14.013805 1.572282 6.484674 11.468170 14.281733 -13.736221 0.000000 1.667943 28.715627 0.337412 -6.981843 180.000037 -41.488181 160.770987 33.609196 -0.563117 0.000000 23.613044 -0.000000 1.221261 -49.448956 -7.601761 32.113879 180.000037 -52.737671 -178.289365 -3.416849 -2.330553 -0.000000 
77.193800 78.331900 10.728000 13.840509 -11.000688 -132.980012 6.491786 -51.630739 13.512828 -0.000000 63.580257 -0.000000 0.000000 -9.422861 17.273128 -0.000000 -1.312612 0.000000 3.631136 -39.994806 -6.996385 -0.000000 54.480923 -0.000000 0.000000 -17.349384 -4.106807 -0.000000 -29.542856 0.000000 -4.613636 13.999725 1.895991 6.912873 10.762098 14.670055 -13.521705 0.000000 1.465595 28.722003 -0.015908 -7.341883 -180.000033 -41.605952 159.530691 33.771677 -0.211453 0.000000 24.145112 -0.000000 1.236639 -50.084721 -8.039546 31.515450 -180.000037 -52.782048 -177.954351 -2.960643 -2.484422 0.000000 
76.739900 77.855000 10.779700 14.697663 -11.371532 -133.560850 7.909430 -53.614703 14.652691 -0.000000 66.285026 -0.000000 0.000000 -9.873548 17.136196 0.000000 -1.289420 -0.000000 3.512367 -41.191776 -7.527480 0.000000 55.704210 -0.000000 0.000000 -17.791786 -3.065231 -0.000000 -29.546394 -0.000000 -4.431837 14.189874 2.444703 7.271406 10.285584 15.242664 -13.081766 0.000000 1.252121 28.847223 -0.745046 -7.641835 -180.000037 -41.773308 159.632311 33.768040 -0.245636 -0.000000 24.398905 0.000000 1.258832 -50.459243 -8.441561 30.660499 180.000037 -53.101755 -178.259641 -3.195533 -2.404198 -0.000000 
75.992200 77.195500 10.737300 15.352816 -11.333686 -133.997142 10.039268 -55.791254 16.209393 -0.000000 70.305255 -0.000000 -0.000000 -10.215555 17.029723 0.000000 -1.280075 0.000000 3.457047 -41.985906 -7.881039 -0.000000 57.427491 0.000000 -0.000000 -18.584362 -2.613794 0.000000 -29.550382 -0.000000 -4.053889 14.697444 2.527564 7.671975 9.992020 15.995456 -12.586212 0.000000 1.124453 28.903128 -1.372812 -7.886026 180.000037 -41.853929 159.073729 34.475702 -0.067815 0.000000 24.705425 0.000000 1.568767 -50.734938 -8.671806 30.099479 -180.000037 -53.683216 -177.482658 -3.965944 -2.144649 -0.000000 
74.853100 76.495900 10.592900 15.357431 -11.076911 -134.283817 12.329248 -57.702945 18.004309 0.000000 74.378549 -0.000000 -0.000000 -9.903424 16.824912 -0.000000 -1.266879 -0.000000 2.895155 -41.960379 -8.323297 0.000000 59.186047 -0.000000 0.000000 -19.609687 -2.452172 0.000000 -29.553207 -0.000000 -3.921236 15.396979 2.473540 8.100334 9.881195 16.480574 -12.260903 0.000000 0.953741 28.821041 -1.789719 -8.232072 -180.000034 -42.159085 160.031238 34.696061 -0.518585 0.000000 25.151713 0.000000 1.308681 -51.000485 -9.166694 29.886722 -180.000037 -54.513604 -178.960197 -2.857941 -2.519893 -0.000000 
73.419600 75.835400 10.349800 15.367565 -10.773528 -134.343003 16.055960 -59.837065 20.679184 0.000000 77.633961 -0.000000 -0.000000 -10.057304 16.243697 -0.000000 -1.273369 -0.000000 2.211833 -41.568906 -8.741239 -0.000000 60.732948 0.000000 -0.000000 -20.841903 -2.611911 -0.000000 -29.557482 -0.000000 -3.710936 15.882404 2.377088 8.343320 9.896820 16.895479 -12.137072 0.000000 0.887684 28.858437 -2.255294 -8.429085 -180.000034 -42.363131 159.684147 34.446560 -0.196880 -0.000000 25.502232 0.000000 1.174541 -51.061982 -9.198530 30.085215 -180.000037 -55.108708 -177.825374 -3.873205 -2.176126 0.000000 
71.642100 75.349500 10.027000 15.122097 -10.466620 -134.040122 20.871031 -61.792077 23.883155 -0.000000 78.810304 -0.000000 0.000000 -9.718535 16.343628 -0.000000 -1.258050 0.000000 0.730228 -40.457621 -9.987039 -0.000000 61.836400 -0.000000 0.000000 -21.968987 -2.610067 0.000000 -29.560645 0.000000 -3.694754 16.204859 2.258158 8.885779 9.944561 17.094837 -12.022998 0.000000 0.841515 28.446634 -2.547909 -9.106355 -180.000033 -42.338188 160.162254 35.196127 -0.264040 -0.000000 25.944645 0.000000 0.994551 -51.181941 -8.914300 30.264301 -180.000037 -55.433908 -177.325945 -4.339492 -2.019205 0.000000 
69.354900 75.085600 9.617100 14.239307 -10.486536 -133.898475 26.260350 -62.690931 27.915670 -0.000000 77.604605 -0.000000 0.000000 -9.077455 15.863677 0.000000 -1.247883 0.000000 -1.616600 -38.549113 -11.232827 -0.000000 62.411638 0.000000 -0.000000 -22.849692 -2.609517 -0.000000 -29.567550 -0.000000 -4.298853 16.255037 2.455088 9.219601 10.223674 17.095918 -11.946867 -0.000000 0.976355 28.083871 -2.862858 -9.435514 180.000035 -42.502337 158.858853 35.358577 0.291567 -0.000000 25.878649 0.000000 0.888027 -51.030093 -8.300503 30.423226 -180.000037 -55.726747 -177.670528 -3.880953 -2.173608 0.000000 
66.509000 75.219400 9.071200 13.145773 -10.276526 -133.702851 31.992646 -62.274720 32.497568 -0.000000 74.090923 -0.000000 0.000000 -6.641324 15.478847 0.000000 -1.239754 -0.000000 -4.034928 -35.168852 -12.597948 -0.000000 61.388353 0.000000 -0.000000 -23.337755 -2.464790 -0.000000 -29.573356 -0.000000 -4.693713 15.924345 2.866706 9.101208 10.823096 16.938491 -12.110388 -0.000000 1.668348 27.966292 -3.104916 -10.304652 -180.000032 -42.572427 159.261118 35.467738 0.279833 0.000000 25.762927 -0.000000 0.559706 -51.112152 -7.577426 31.363312 -180.000036 -55.970705 -176.166403 -5.035675 -1.784856 0.000000 
63.023700 75.914100 8.481500 11.824369 -10.157615 -133.260484 35.487120 -60.782820 35.216170 0.000000 68.237784 0.000000 0.000000 0.319401 13.722885 -0.000000 -1.306769 -0.000000 -6.430746 -30.374191 -13.319982 0.000000 58.215777 -0.000000 0.000000 -22.972660 -2.708158 -0.000000 -29.581091 0.000000 -5.170891 15.198951 3.128720 9.050869 11.901147 16.683546 -11.979885 0.000000 2.188857 28.099392 -2.463717 -10.978948 -180.000035 -42.326528 159.708461 35.568260 0.319629 0.000000 25.060990 0.000000 0.841480 -50.919619 -5.411436 31.946163 -180.000037 -55.725034 -176.641705 -4.458495 -1.980936 -0.000000 
58.769400 77.380300 7.753700 10.343066 -10.087077 -132.598931 35.330506 -57.838731 34.958956 0.000000 59.663853 -0.000000 0.000000 9.380542 10.045027 -0.000000 -1.445500 -0.000000 -8.341045 -23.558290 -13.011679 0.000000 51.604685 0.000000 0.000000 -21.045795 -3.516237 -0.000000 -29.588000 -0.000000 -5.612380 14.171676 3.640013 9.011439 13.575028 15.779166 -11.976096 0.000000 2.173537 28.491502 -1.091519 -11.856322 -180.000035 -41.998217 160.558464 35.744429 0.394132 -0.000000 24.710373 0.000000 0.794293 -51.764158 -2.508808 32.609962 -180.000036 -55.364540 -175.534357 -4.325723 -2.025612 0.000000 
53.708100 79.402500 7.057600 9.145912 -10.438209 -131.591675 31.556519 -54.193386 31.711799 -0.000000 48.896255 -0.000000 -0.000000 18.249249 5.205832 -0.000000 -1.579506 -0.000000 -9.833771 -15.762415 -10.737497 -0.000000 42.484240 0.000000 -0.000000 -16.053528 -4.802691 -0.000000 -29.592593 -0.000000 -5.929491 12.351439 3.746767 8.770638 16.140473 15.044968 -12.265136 -0.000000 2.649348 29.528649 0.373120 -13.247669 -180.000034 -41.991258 160.228431 35.876965 0.470128 -0.000000 24.134622 -0.000000 0.398024 -52.062784 0.311171 34.013658 -180.000036 -55.510533 -175.156211 -5.766899 -1.540680 0.000000 
48.198800 81.652900 6.626600 8.444994 -10.690042 -130.939085 26.426496 -49.800135 26.629955 -0.000000 36.836406 0.000000 0.000000 28.089182 -0.563248 0.000000 -1.733030 0.000000 -10.923378 -10.779333 -6.175585 -0.000000 37.927946 -0.000000 0.000000 -6.551048 -8.407235 0.000000 -29.579571 -0.000000 -5.539790 10.105896 3.878234 7.835534 18.904330 14.316715 -13.314502 0.000000 3.443591 31.409019 2.239892 -14.399992 -180.000036 -41.522071 159.702748 36.461369 0.481107 0.000000 23.668469 -0.000000 0.244643 -52.347952 3.794034 35.262516 180.000037 -55.278171 -176.021234 -4.607429 -1.935605 0.000000 
42.787300 83.511800 6.562100 8.374206 -10.349412 -130.875031 22.347925 -45.447140 20.970640 0.000000 26.442055 -0.000000 -0.000000 35.634369 -5.698959 -0.000000 -1.807798 -0.000000 -11.476554 -10.875131 -2.751817 -0.000000 43.587749 0.000000 -0.000000 0.834240 -10.221253 0.000000 -29.543310 -0.000000 -4.032669 8.846672 4.026915 6.485318 20.338043 14.422213 -14.830211 0.000000 5.047585 33.300487 3.559155 -14.558461 180.000036 -40.591266 159.411724 36.677630 0.320473 -0.000000 23.611137 0.000000 0.280882 -53.373620 5.936066 36.760840 180.000037 -54.485805 -175.700880 -5.266056 -1.712917 0.000000 
37.615400 84.286200 6.387000 7.934844 -9.364689 -131.099306 20.070366 -42.014859 19.981297 -0.000000 22.089434 -0.000000 0.000000 40.112063 -6.706944 0.000000 -1.863974 -0.000000 -10.905508 -11.046661 -0.357941 -0.000000 49.404234 0.000000 -0.000000 0.303609 -3.718324 -0.000000 -29.556577 0.000000 -2.874869 8.944295 4.013419 5.925317 20.669929 14.988081 -15.068139 0.000000 6.114784 33.887876 5.458717 -13.780270 -180.000035 -39.475646 159.849106 37.041285 0.231332 0.000000 24.118994 0.000000 1.111331 -54.253228 7.836011 37.148801 180.000036 -53.442475 -176.303513 -4.585523 -1.944431 0.000000 
32.517700 83.786200 6.479900 7.217263 -9.204663 -130.820084 16.731117 -40.898359 19.410601 0.000000 24.354318 -0.000000 0.000000 36.448507 -5.184599 -0.000000 -1.773191 -0.000000 -11.247780 -12.231952 -0.905061 0.000000 54.974005 -0.000000 -0.000000 -3.194020 -3.935410 0.000000 -29.552633 0.000000 -2.657867 9.049059 4.008266 6.339422 20.596626 14.984453 -14.506878 0.000000 6.719355 33.891411 6.195704 -14.091411 -180.000036 -38.745165 159.937544 37.690478 -0.023829 0.000000 24.247791 0.000000 0.928377 -54.216526 7.898365 36.896399 180.000036 -53.142128 -176.165308 -5.011048 -1.800626 0.000000 
27.932900 82.256300 6.933600 6.395086 -9.163779 -129.525254 12.320189 -42.195894 15.438745 -0.000000 32.108914 0.000000 0.000000 23.432726 -1.128104 0.000000 -1.701630 -0.000000 -11.636720 -15.225415 -2.550994 -0.000000 63.574362 -0.000000 -0.000000 -6.088498 -1.373434 0.000000 -29.559583 0.000000 -2.877677 9.283794 3.785657 7.829458 19.973802 13.755074 -13.355637 0.000000 6.689165 33.550336 5.859664 -14.484074 180.000035 -38.611728 159.020340 38.271250 -0.291857 0.000000 24.251924 0.000000 0.325341 -53.116337 8.070281 35.625695 -180.000037 -52.557791 -175.589110 -4.966796 -1.813562 -0.000000 
23.997500 80.173100 7.292200 4.905768 -9.063043 -127.931467 7.757239 -44.423373 10.931512 0.000000 41.051833 -0.000000 -0.000000 14.187522 1.660830 0.000000 -1.628026 -0.000000 -11.024154 -18.978253 -3.539120 -0.000000 73.373664 0.000000 -0.000000 -8.720106 0.857040 0.000000 -29.572184 -0.000000 -3.877009 10.682565 3.521170 9.566963 18.876798 12.554864 -12.000873 0.000000 5.877635 32.714609 4.672846 -14.642414 -180.000037 -38.786018 158.035450 38.019102 0.087107 0.000000 24.286207 0.000000 -0.269206 -51.095937 7.615740 33.611277 180.000036 -51.832625 -174.849889 -5.796433 -1.531460 -0.000000 
20.376700 78.392000 7.477500 2.876230 -9.718565 -127.266930 4.207241 -46.348011 9.692219 -0.000000 49.934250 0.000000 0.000000 9.180765 1.741688 -0.000000 -1.584940 -0.000000 -10.788241 -23.281441 -4.788222 -0.000000 81.135807 -0.000000 -0.000000 -10.579562 2.133639 0.000000 -29.574374 -0.000000 -5.706155 12.683020 3.286023 10.117083 17.605283 12.205238 -12.307104 -0.000000 5.438956 32.962081 2.220871 -13.881266 -180.000037 -39.175611 157.537238 38.580576 0.502417 -0.000000 24.277440 0.000000 -0.039473 -48.677414 6.494173 31.837641 180.000034 -50.326888 -174.079507 -6.199135 -1.394324 -0.000000 
